<svg height="512" viewBox="0 0 64 64" width="512" xmlns="http://www.w3.org/2000/svg"><path d="m6 6h2v2h-2z"/><path d="m10 6h2v2h-2z"/><path d="m14 6h2v2h-2z"/><path d="m61 2h-58a1 1 0 0 0 -1 1v58a1 1 0 0 0 1 1h58a1 1 0 0 0 1-1v-58a1 1 0 0 0 -1-1zm-57 2h14v6h-14zm56 56h-56v-48h56zm0-50h-40v-6h40z"/><path d="m10.063 23.351a1 1 0 0 0 1.874 0l3-8a1 1 0 1 0 -1.874-.7l-2.063 5.501-2.063-5.5a1 1 0 1 0 -1.874.7z"/><path d="m17 15v8a1 1 0 0 0 1 1h4a1 1 0 0 0 1-1v-8a1 1 0 0 0 -1-1h-4a1 1 0 0 0 -1 1zm2 1h2v6h-2z"/><path d="m36 24h4a1 1 0 0 0 0-2h-3v-2h3a1 1 0 0 0 0-2h-3v-2h3a1 1 0 0 0 0-2h-4a1 1 0 0 0 -1 1v8a1 1 0 0 0 1 1z"/><path d="m26 16h2v7a1 1 0 0 0 2 0v-7h2a1 1 0 0 0 0-2h-6a1 1 0 0 0 0 2z"/><path d="m58 17h-10v8h10zm-2 6h-6v-4h6z"/><path d="m58 27h-10v8h10zm-2 6h-6v-4h6z"/><path d="m58 37h-10v8h10zm-2 6h-6v-4h6z"/><path d="m58 47h-10v8h10zm-2 6h-6v-4h6z"/><path d="m18 38v18h-3v-14h-6v14h-3v2h40v-44h-2v42h-2v-30h-6v30h-3v-24h-6v24h-3v-18zm-5 18h-2v-12h2zm9 0h-2v-16h2zm16-28h2v28h-2zm-9 6h2v22h-2z"/><path d="m11 35h2v2h-2z"/><path d="m15 33h2v2h-2z"/></svg>